<svg width="30" height="29" viewBox="0 0 30 29" fill="none" xmlns="http://www.w3.org/2000/svg">
<g clip-path="url(#clip0)">
<path fill-rule="evenodd" clip-rule="evenodd" d="M0.0847671 12.7702C0.126677 18.9846 4.67497 24.1218 10.585 25.1299L10.5241 16.1019L7.39921 16.123L7.3758 12.6512L10.5007 12.6302L10.482 9.85209C10.4609 6.72716 12.4627 4.97821 15.3106 4.959C16.2126 4.95292 17.1865 5.08489 18.0895 5.21735L18.111 8.41207L16.5142 8.42284C14.9861 8.43314 14.6443 9.19901 14.6509 10.1719L14.6673 12.6021L18.0006 12.5796L17.4688 16.0551L14.6907 16.0738L14.7516 25.1018C20.6475 24.0141 25.1261 18.8171 25.0842 12.6016C25.0376 5.68821 19.3746 0.0700241 12.4997 0.116387C5.62487 0.16275 0.0381442 5.85681 0.0847671 12.7702Z" fill="#FAFAFA"/>
</g>
<defs>
<clipPath id="clip0">
<rect width="29.7607" height="28.5832" fill="white" transform="translate(0 0.200684) rotate(-0.386389)"/>
</clipPath>
</defs>
</svg>
