<svg width="31" height="32" viewBox="0 0 31 32" fill="none" xmlns="http://www.w3.org/2000/svg">
<path d="M15.0744 12.1937C12.9241 12.2082 11.1811 13.9749 11.1956 16.1252C11.2101 18.2756 12.9768 20.0186 15.1271 20.0041C17.2774 19.9896 19.0204 18.2229 19.0059 16.0726C18.9914 13.9222 17.2248 12.1792 15.0744 12.1937ZM26.8134 16.0199C26.8025 14.4028 26.8063 12.8002 26.7046 11.1865C26.6012 9.3122 26.1622 7.65106 24.7819 6.28925C23.3986 4.92452 21.7347 4.51093 19.8591 4.43275C18.2413 4.35284 16.6389 4.3783 15.0247 4.38918C13.4076 4.40009 11.805 4.39625 10.1914 4.49795C8.31702 4.60141 6.65587 5.04036 5.29406 6.42067C3.92933 7.80393 3.51574 9.46789 3.43756 11.3435C3.35765 12.9612 3.38311 14.5636 3.39399 16.1778C3.40488 17.7921 3.40106 19.3976 3.50276 21.0112C3.60623 22.8856 4.04517 24.5467 5.42548 25.9085C6.80874 27.2732 8.4727 27.6868 10.3483 27.765C11.966 27.8449 13.5684 27.8195 15.1827 27.8086C16.7998 27.7977 18.4024 27.8015 20.016 27.6998C21.8904 27.5963 23.5515 27.1574 24.9133 25.7771C26.278 24.3938 26.6916 22.7299 26.7698 20.8543C26.8527 19.2394 26.8243 17.6371 26.8134 16.0199ZM15.1413 22.1076C11.8162 22.13 9.11453 19.4645 9.09211 16.1394C9.06968 12.8143 11.7351 10.1127 15.0602 10.0902C18.3854 10.0678 21.087 12.7333 21.1094 16.0584C21.1318 19.3835 18.4664 22.0851 15.1413 22.1076ZM21.3228 11.2053C20.5464 11.2105 19.9153 10.5878 19.91 9.81144C19.9048 9.03509 20.5275 8.40392 21.3039 8.39869C22.0802 8.39345 22.7114 9.01616 22.7166 9.79251C22.7181 9.97686 22.6832 10.1597 22.6139 10.3305C22.5446 10.5014 22.4423 10.6568 22.3128 10.7881C22.1833 10.9193 22.0292 11.0237 21.8594 11.0953C21.6895 11.1669 21.5071 11.2043 21.3228 11.2053Z" fill="white"/>
</svg>
