<svg width="31" height="32" viewBox="0 0 31 32" fill="none" xmlns="http://www.w3.org/2000/svg">
<path d="M25.8028 4.30774L4.24076 4.45315C3.72222 4.45665 3.30611 4.87841 3.30961 5.39695L3.45502 26.959C3.45851 27.4775 3.88028 27.8936 4.39882 27.8901L25.9608 27.7447C26.4794 27.7412 26.8955 27.3194 26.892 26.8009L26.7466 5.2389C26.7431 4.72035 26.3213 4.30424 25.8028 4.30774ZM10.39 24.3838L6.9125 24.4073L6.83707 13.222L10.3145 13.1985L10.39 24.3838ZM8.56695 11.681C8.1683 11.6837 7.77781 11.5681 7.44486 11.3488C7.11191 11.1296 6.85144 10.8166 6.6964 10.4493C6.54137 10.082 6.49872 9.67702 6.57385 9.28551C6.64899 8.894 6.83853 8.53356 7.11851 8.24978C7.3985 7.96599 7.75634 7.77161 8.1468 7.6912C8.53726 7.61079 8.9428 7.64797 9.31212 7.79804C9.68145 7.94811 9.99799 8.20433 10.2217 8.5343C10.4454 8.86427 10.5662 9.25316 10.5689 9.6518C10.5735 10.7651 9.67727 11.6735 8.56695 11.681ZM23.4092 24.296L19.9347 24.3194L19.898 18.8791C19.8892 17.5813 19.8545 15.9145 18.0704 15.9266C16.2628 15.9387 15.994 17.3527 16.0039 18.8117L16.0412 24.3457L12.5696 24.3691L12.4942 13.1838L15.8281 13.1613L15.8384 14.6906L15.8853 14.6903C16.3422 13.8083 17.4697 12.8719 19.163 12.8605C22.6844 12.8368 23.3475 15.1497 23.3678 18.1614L23.4092 24.296Z" fill="white"/>
</svg>
