<svg width="73" height="67" viewBox="0 0 73 67" fill="none" xmlns="http://www.w3.org/2000/svg">
<rect width="73" height="67" rx="15" fill="#529EA9"/>
<path fill-rule="evenodd" clip-rule="evenodd" d="M73 67H0V0H73V67ZM57.9452 28.3983V23.2019C57.0127 22.8208 51.673 21.4189 47.4546 22.8963C41.3779 25.0244 41.5962 31.4352 43.9021 33.9512C46.8898 37.2112 54.322 38.4266 53.1058 41.6264C52.476 43.2833 49.5359 43.5717 46.9438 43.0154C44.53 42.4975 42.4313 41.1852 42.4313 41.1852V46.6872C42.4313 46.6872 44.5058 47.7488 47.0519 48.0013C50.316 48.3249 54.4074 47.7138 56.4571 46.0417C60.1057 43.065 60.666 36.471 53.7517 33.409C47.9979 30.8612 48.0926 30.134 48.1329 28.8271C48.1871 27.0768 52.1913 25.9993 57.9452 28.3983ZM26.9173 13.8155C31.7047 13.9683 38.7402 15.9934 38.7402 24.6284C38.7402 33.2634 30.1322 36.0969 22.2777 35.4795V47.7061H16.4264V13.93C16.4264 13.93 22.1297 13.6626 26.9172 13.8155H26.9173ZM28.4368 30.1304C30.9598 29.2854 32.5998 27.469 32.5998 24.6474C32.5998 21.6558 30.9309 19.63 28.3785 19.0577C25.6144 18.4378 22.2777 18.8032 22.2777 18.8032V30.5863C22.2777 30.5863 26.8965 30.6462 28.4368 30.1304Z" fill="#223062"/>
</svg>
