<svg width="432" height="437" viewBox="0 0 432 437" fill="none" xmlns="http://www.w3.org/2000/svg">
<g clip-path="url(#clip0)">
<path d="M261.059 189.545V152.06H91.2101V189.544C91.2119 209.145 97.3076 228.205 108.563 243.802C119.818 259.4 135.612 270.674 153.525 275.898C156.154 276.676 158.47 278.34 160.119 280.635C161.769 282.931 162.661 285.732 162.661 288.612C162.661 291.492 161.769 294.294 160.119 296.589C158.47 298.885 156.154 300.548 153.525 301.327C135.612 306.55 119.817 317.825 108.562 333.423C97.3065 349.021 91.2111 368.082 91.2101 387.683V425.169H261.059V387.683C261.057 368.082 254.962 349.022 243.706 333.425C232.451 317.828 216.657 306.553 198.745 301.33C196.115 300.552 193.799 298.888 192.149 296.592C190.499 294.297 189.606 291.496 189.606 288.615C189.606 285.735 190.499 282.933 192.149 280.638C193.799 278.342 196.115 276.679 198.745 275.901C216.657 270.677 232.451 259.403 243.706 243.805C254.962 228.208 261.058 209.148 261.059 189.547" fill="#2A74FF"/>
<path opacity="0.8" d="M261.059 189.545V152.06H91.2101V189.544C91.2119 209.145 97.3076 228.205 108.563 243.802C119.818 259.4 135.612 270.674 153.525 275.898C156.154 276.676 158.47 278.34 160.119 280.635C161.769 282.931 162.661 285.732 162.661 288.612C162.661 291.492 161.769 294.294 160.119 296.589C158.47 298.885 156.154 300.548 153.525 301.327C135.612 306.55 119.817 317.825 108.562 333.423C97.3065 349.021 91.2111 368.082 91.2101 387.683V425.169H261.059V387.683C261.057 368.082 254.962 349.022 243.706 333.425C232.451 317.828 216.657 306.553 198.745 301.33C196.115 300.552 193.799 298.888 192.149 296.592C190.499 294.297 189.606 291.496 189.606 288.615C189.606 285.735 190.499 282.933 192.149 280.638C193.799 278.342 196.115 276.679 198.745 275.901C216.657 270.677 232.451 259.403 243.706 243.805C254.962 228.208 261.058 209.148 261.059 189.547" fill="#593D34"/>
<path d="M261.596 425.735H90.6736V387.684C90.7029 367.966 96.8477 348.799 108.17 333.108C119.493 317.418 135.372 306.065 153.384 300.783C155.9 300.038 158.117 298.445 159.695 296.249C161.274 294.052 162.129 291.371 162.129 288.614C162.129 285.857 161.274 283.176 159.695 280.979C158.117 278.782 155.9 277.19 153.384 276.445C135.372 271.162 119.494 259.809 108.171 244.119C96.8482 228.429 90.7032 209.262 90.6736 189.544V151.494H261.596V189.545C261.567 209.262 255.422 228.429 244.1 244.119C232.777 259.809 216.899 271.162 198.888 276.445C196.371 277.19 194.155 278.782 192.576 280.979C190.997 283.176 190.143 285.857 190.143 288.614C190.143 291.371 190.997 294.052 192.576 296.249C194.155 298.445 196.371 300.038 198.888 300.783C216.899 306.066 232.777 317.419 244.1 333.109C255.422 348.8 261.566 367.966 261.596 387.684V425.735ZM91.7488 424.603H260.523V387.684C260.494 368.214 254.426 349.288 243.246 333.795C232.066 318.301 216.388 307.091 198.603 301.874C195.86 301.063 193.443 299.329 191.722 296.935C190.001 294.541 189.069 291.618 189.069 288.614C189.069 285.609 190.001 282.687 191.722 280.293C193.443 277.899 195.86 276.165 198.603 275.354C216.388 270.137 232.066 258.927 243.246 243.434C254.426 227.94 260.494 209.015 260.523 189.545V152.625H91.7466V189.544C91.7759 209.014 97.8436 227.94 109.024 243.434C120.204 258.927 135.883 270.137 153.669 275.354C156.412 276.165 158.828 277.9 160.549 280.294C162.27 282.688 163.201 285.61 163.201 288.614C163.201 291.618 162.27 294.54 160.549 296.934C158.828 299.328 156.412 301.063 153.669 301.874C135.883 307.09 120.204 318.301 109.024 333.794C97.8433 349.287 91.7756 368.213 91.7466 387.684L91.7488 424.603Z" fill="#323232"/>
<path d="M270.927 145.236C270.927 147.019 270.266 148.732 269.084 150.007C267.901 151.282 266.293 152.017 264.603 152.056C264.553 152.06 264.507 152.06 264.457 152.06H88.1004C88.0505 152.06 88.0043 152.06 87.955 152.056C86.2523 152.016 84.6333 151.269 83.4494 149.978C82.2654 148.687 81.6122 146.955 81.6313 145.159C81.6504 143.363 82.3405 141.647 83.5516 140.384C84.7627 139.121 86.3973 138.413 88.1004 138.413H264.455C265.305 138.413 266.146 138.589 266.931 138.932C267.716 139.275 268.43 139.777 269.031 140.411C269.632 141.044 270.108 141.797 270.434 142.625C270.759 143.453 270.927 144.34 270.927 145.236Z" fill="#323232"/>
<path d="M179.136 362.288V281.27C179.07 278.192 179.965 275.177 181.681 272.687C183.398 270.198 185.842 268.371 188.639 267.488C218.692 258.766 246.651 230.332 248.025 197.671C248.098 195.919 246.639 194.766 244.977 194.766H107.291C105.628 194.766 104.17 195.919 104.243 197.671C105.617 230.332 133.576 258.766 163.629 267.488C167.882 268.729 173.134 274.226 173.134 281.473V362.294C173.134 368.122 171.053 373.072 167.146 377.192C163.92 380.596 115.338 425.168 115.338 425.168H236.931C236.931 425.168 187.9 380.087 185.201 377.238C181.293 373.119 179.136 368.116 179.136 362.288Z" fill="#B63F3F"/>
<path d="M270.972 430.208C270.973 431.991 270.311 433.704 269.129 434.979C267.947 436.253 266.338 436.989 264.648 437.028C264.599 437.031 264.553 437.031 264.503 437.031H88.1465C88.0971 437.031 88.051 437.031 88.0016 437.028C86.299 436.988 84.68 436.241 83.4961 434.95C82.3122 433.658 81.6589 431.927 81.678 430.131C81.697 428.335 82.387 426.619 83.598 425.356C84.809 424.093 86.4434 423.385 88.1465 423.385H264.503C266.219 423.385 267.864 424.104 269.077 425.383C270.291 426.663 270.972 428.399 270.972 430.208Z" fill="#323232"/>
<path d="M314.75 436.619C356.39 436.619 390.146 401.016 390.146 357.098C390.146 313.179 356.39 277.576 314.75 277.576C273.109 277.576 239.353 313.179 239.353 357.098C239.353 401.016 273.109 436.619 314.75 436.619Z" fill="#593D34"/>
<path d="M336.744 433.581C296.757 446.37 254.36 422.468 242.232 380.294C230.104 338.12 252.769 293.403 292.755 280.614C332.742 267.825 375.141 291.725 387.266 333.899C399.392 376.073 376.73 420.79 336.744 433.581ZM292.977 281.384C253.395 294.046 230.959 338.312 242.964 380.06C254.97 421.808 296.939 445.471 336.522 432.809C376.105 420.147 398.54 375.881 386.535 334.133C374.53 292.385 332.56 268.722 292.977 281.384Z" fill="#B63F3F"/>
<path opacity="0.45" d="M314.75 427.109C351.41 427.109 381.13 395.763 381.13 357.097C381.13 318.43 351.41 287.084 314.75 287.084C278.089 287.084 248.369 318.43 248.369 357.097C248.369 395.763 278.089 427.109 314.75 427.109Z" fill="#FAFAFA"/>
<path d="M314.75 361.306C316.954 361.306 318.741 359.421 318.741 357.097C318.741 354.772 316.954 352.887 314.75 352.887C312.545 352.887 310.758 354.772 310.758 357.097C310.758 359.421 312.545 361.306 314.75 361.306Z" fill="#B63F3F"/>
<path d="M363.953 385.168C363.905 385.183 363.854 385.188 363.804 385.183C363.754 385.178 363.706 385.162 363.662 385.137L314.569 357.452C314.508 357.418 314.457 357.366 314.422 357.304C314.386 357.241 314.367 357.17 314.367 357.097L314.35 316.277C314.35 316.17 314.391 316.068 314.463 315.992C314.534 315.916 314.632 315.874 314.733 315.874C314.835 315.874 314.932 315.916 315.004 315.992C315.075 316.068 315.116 316.17 315.116 316.277L315.132 356.855L364.022 384.426C364.089 384.464 364.144 384.522 364.179 384.592C364.215 384.662 364.23 384.742 364.223 384.822C364.215 384.901 364.186 384.976 364.138 385.038C364.09 385.1 364.025 385.145 363.953 385.168V385.168Z" fill="#B63F3F"/>
<path d="M114.85 242.947C114.85 242.947 113.283 251.513 105.678 251.991C98.0734 252.469 99.7227 258.859 99.7227 258.859H128.784V243.544L114.85 242.947Z" fill="#593D34"/>
<path d="M131.43 217.178C131.43 217.178 133.61 225.595 126.986 229.563C120.362 233.532 124.518 238.499 124.518 238.499L150.593 224.968L144.184 211.227L131.43 217.178Z" fill="#593D34"/>
<path d="M128.672 222.744L109.023 144.55C107.531 135.911 109.774 132.167 113.233 128.53C119.308 122.139 144.479 108.538 144.479 108.538L174.676 108.451C182.683 108.451 190.557 116.778 190.557 125.223C190.557 133.668 182.417 140.83 174.407 140.83L137.222 144.746L147.301 216.343L128.672 222.744Z" fill="#262626"/>
<path d="M147.301 216.34L143.333 188.153L123.23 201.088L128.672 222.743L147.301 216.34Z" fill="#0C0C0C"/>
<path d="M151.859 124.361C151.859 124.361 139.164 127.345 126.593 140.604C118.97 148.644 119.595 163.193 120.738 191.174L133.225 171.722L146.92 145.67L151.859 124.361Z" fill="#0C0C0C"/>
<path d="M195.811 108.441L175.303 108.339L175.295 108.622H169.086C169.086 108.622 153.532 123.719 141.008 133.232C131.899 140.151 126.342 146.747 125.861 153.937C124.689 171.463 111.469 246.209 111.469 246.209L131.365 249.387L148.824 160.059C148.824 160.059 176.126 146.785 182.441 142.165C188.388 137.815 192.588 136.133 194.556 131.386C197.955 123.188 195.811 108.441 195.811 108.441Z" fill="#262626"/>
<path d="M172.804 113.89L139.535 114.354L158.197 126.111L173.728 117.653C174.103 117.441 174.399 117.103 174.569 116.692C174.74 116.281 174.774 115.822 174.668 115.388C174.561 114.954 174.32 114.571 173.981 114.299C173.643 114.027 173.229 113.883 172.804 113.89Z" fill="#292A2E"/>
<path opacity="0.2" d="M172.804 113.89L139.535 114.354L158.197 126.111L173.728 117.653C174.103 117.441 174.399 117.103 174.569 116.692C174.74 116.281 174.774 115.822 174.668 115.388C174.561 114.954 174.32 114.571 173.981 114.299C173.643 114.027 173.229 113.883 172.804 113.89Z" fill="white"/>
<path d="M139.726 50.9404L130.317 83.0984L111.469 109.126L122.479 122.455L144.902 96.0593C145.935 95.198 146.743 94.0731 147.25 92.7908L147.6 91.8995L160.55 58.8486L139.726 50.9404Z" fill="#593D34"/>
<path d="M154.222 16.8043C154.222 16.8043 150.43 13.7859 149.49 6.83803C148.763 1.45819 153.468 4.94346 153.468 4.94346C153.468 4.94346 152.98 1.0649 155.658 1.4497C158.337 1.8345 159.838 5.90942 159.838 5.90942" fill="#0C0C0C"/>
<path d="M169.509 1.90332C169.509 1.90332 182.804 3.40687 177.998 22.408L176.821 22.4912L174.433 22.661" fill="#0C0C0C"/>
<path d="M156.448 42.2525C156.507 42.2446 157.155 53.5967 169.659 52.6081C178.315 51.924 181.401 42.2378 181.6 42.2378C180.666 42.0284 179.513 41.711 179.055 41.6017C178.056 41.3572 177.151 40.7977 176.461 39.9976C175.771 39.1975 175.328 38.1948 175.192 37.1228C174.938 35.514 175.368 27.2821 175.236 25.6541L161.949 28.7817C162.134 32.22 163.434 40.191 158.879 41.6017C158.122 41.8343 157.305 42.0488 156.448 42.2525Z" fill="#E98862"/>
<path opacity="0.52" d="M161.764 38.3434C161.972 37.6358 162.106 36.9064 162.163 36.1681C162.309 34.4835 162.28 32.7871 162.076 31.1092C164.777 30.7241 167.321 29.5478 169.42 27.7139C169.667 28.6759 171.023 32.8741 170.648 33.7875C169.936 35.5162 166.6 38.3434 161.764 38.3434Z" fill="#0C0C0C"/>
<path d="M164.505 36.0962C169.747 35.6005 176.021 32.1073 176.111 24.6026L176.193 17.8307C176.284 10.326 172.62 4.19296 165.92 4.10185C159.22 4.01074 154.139 10.0289 154.049 17.5353L154.012 20.5345C154.018 21.5642 154.089 22.5923 154.227 23.6118C154.571 26.3082 155.103 30.4091 156.839 33.1825C158.476 35.7986 161.156 36.4131 164.505 36.0962Z" fill="#E98862"/>
<path opacity="0.52" d="M162.073 29.2366C160.991 29.2884 159.913 29.0711 158.925 28.6023C158.886 28.5825 158.855 28.5475 158.84 28.5044C158.824 28.4614 158.825 28.4137 158.842 28.3714C158.86 28.329 158.891 28.2953 158.932 28.2773C158.972 28.2593 159.017 28.2583 159.058 28.2747C161.186 29.2316 163.118 29.0912 164.645 27.8695C164.675 27.8437 164.708 27.8198 164.741 27.7976C164.78 27.774 164.826 27.7678 164.869 27.7801C164.912 27.7925 164.949 27.8225 164.972 27.8635C164.994 27.9046 165 27.9533 164.988 27.999C164.977 28.0447 164.948 28.0836 164.909 28.1071C164.897 28.1151 164.877 28.1315 164.849 28.1536C164.047 28.7981 163.08 29.1753 162.073 29.2366Z" fill="#0C0C0C"/>
<path opacity="0.52" d="M162.123 30.9274C161.928 30.94 161.732 30.935 161.537 30.9127C161.493 30.9078 161.452 30.8843 161.423 30.8476C161.395 30.8108 161.382 30.7637 161.387 30.7166C161.391 30.6696 161.414 30.6264 161.448 30.5967C161.483 30.5669 161.528 30.553 161.573 30.5579C161.879 30.6174 162.194 30.6072 162.496 30.5281C162.799 30.4489 163.081 30.3026 163.326 30.099C163.358 30.0655 163.401 30.0467 163.445 30.0466C163.49 30.0466 163.533 30.0653 163.565 30.0987C163.597 30.1321 163.615 30.1774 163.615 30.2247C163.615 30.272 163.597 30.3173 163.565 30.3508C163.162 30.713 162.652 30.9168 162.123 30.9274Z" fill="#0C0C0C"/>
<path d="M156.261 21.9748C156.717 21.9748 157.086 21.5851 157.086 21.1045C157.086 20.6238 156.717 20.2341 156.261 20.2341C155.805 20.2341 155.436 20.6238 155.436 21.1045C155.436 21.5851 155.805 21.9748 156.261 21.9748Z" fill="#0C0C0C"/>
<path d="M164.324 21.4411C164.78 21.4411 165.149 21.0514 165.149 20.5708C165.149 20.0901 164.78 19.7004 164.324 19.7004C163.868 19.7004 163.499 20.0901 163.499 20.5708C163.499 21.0514 163.868 21.4411 164.324 21.4411Z" fill="#0C0C0C"/>
<path d="M175.668 26.8833C177.704 26.911 179.382 24.6356 179.408 22.4881C179.434 20.3406 177.798 19.1347 175.759 19.1069L174.694 20.5347L173.916 26.8629L175.668 26.8833Z" fill="#E98862"/>
<path d="M173.642 23.4329C173.642 23.4329 172.954 12.8136 169.902 12.1577C167.868 11.7209 162.937 14.7608 158.37 13.8441C156.372 13.4423 154.475 13.964 154.282 14.9594C154.205 15.3555 152.961 9.68936 156.09 5.39035C158.581 1.9679 166.734 1.00137 170.443 2.12408C180.713 5.23134 176.181 19.5725 176.181 19.5725L175.723 23.2337L173.642 23.4329Z" fill="#0C0C0C"/>
<g opacity="0.52">
<path opacity="0.52" d="M160.842 26.7304H160.829C160.173 26.7236 159.073 26.6348 159.078 26.117C159.082 25.688 160.239 21.0693 160.371 20.5442C160.386 20.5032 160.414 20.4693 160.451 20.4493C160.488 20.4292 160.531 20.4244 160.571 20.4356C160.611 20.4469 160.646 20.4736 160.669 20.5104C160.691 20.5471 160.7 20.5915 160.693 20.6347C160.179 22.6804 159.413 25.8289 159.41 26.1204C159.857 26.3264 160.344 26.4147 160.83 26.3778C160.875 26.3765 160.918 26.3937 160.95 26.4258C160.982 26.4578 161.001 26.5021 161.002 26.5487C161.003 26.5954 160.987 26.6407 160.957 26.6747C160.926 26.7086 160.884 26.7285 160.84 26.7298L160.842 26.7304Z" fill="#0C0C0C"/>
</g>
<path d="M158.603 16.3849C157.914 16.1849 157.186 16.1849 156.496 16.3849C156.158 16.481 155.834 16.6302 155.538 16.8274C155.245 17.0209 154.976 17.2524 154.737 17.5166C154.693 17.5637 154.668 17.627 154.667 17.6932C154.666 17.7594 154.689 17.8234 154.732 17.8719C154.775 17.9205 154.833 17.9498 154.896 17.9537C154.959 17.9576 155.02 17.9358 155.068 17.8929L155.083 17.8794C155.303 17.6639 155.548 17.4785 155.812 17.3276C156.072 17.1779 156.351 17.0703 156.641 17.0085C157.212 16.8826 157.804 16.9175 158.358 17.1098L158.382 17.1182C158.473 17.1523 158.574 17.1467 158.661 17.1026C158.749 17.0585 158.816 16.9795 158.848 16.8831C158.881 16.7867 158.875 16.6807 158.833 16.5884C158.792 16.4961 158.717 16.4252 158.625 16.3911L158.603 16.3849Z" fill="#0C0C0C"/>
<path d="M163.486 16.8218C164.011 16.5532 164.594 16.4361 165.175 16.4823C165.471 16.5024 165.761 16.5697 166.038 16.682C166.318 16.7943 166.584 16.9434 166.83 17.1257L166.846 17.1364C166.899 17.1727 166.963 17.1859 167.024 17.1735C167.086 17.1611 167.141 17.1239 167.177 17.0698C167.214 17.0157 167.229 16.9488 167.219 16.8833C167.21 16.8177 167.177 16.7586 167.127 16.7183C166.857 16.4895 166.561 16.2977 166.246 16.1473C165.927 15.9935 165.588 15.8911 165.24 15.8434C164.532 15.7417 163.81 15.8438 163.152 16.1388C163.063 16.1795 162.993 16.2557 162.958 16.3508C162.922 16.4459 162.924 16.552 162.962 16.6458C163.001 16.7396 163.073 16.8134 163.163 16.851C163.253 16.8886 163.354 16.8868 163.443 16.8461L163.463 16.836L163.486 16.8218Z" fill="#0C0C0C"/>
<path d="M163.152 5.43919C163.616 3.0995 162.77 0.933568 161.263 0.60146C159.755 0.269352 158.158 1.89683 157.695 4.23652C157.231 6.57621 158.077 8.74213 159.584 9.07423C161.091 9.40634 162.689 7.77888 163.152 5.43919Z" fill="#0C0C0C"/>
<path d="M140.914 67.2006C141.307 72.0802 144.1 102.526 144.478 108.537H195.788C196.083 103.116 197.407 79.4101 198.524 68.8083C199.591 58.692 201.088 54.088 199.859 50.9445C197.691 45.3989 190.791 42.9237 186.118 42.2566C183.264 41.8491 178.973 41.5571 178.973 41.5571C178.973 41.5571 178.609 49.3097 169.945 49.7409C158.151 50.3283 158.938 41.5571 158.88 41.5571C156.969 41.5571 146.568 43.0222 143.967 44.8104C142.485 45.7613 141.262 47.103 140.42 48.7035C139.579 50.3039 139.146 52.1079 139.166 53.9381C139.117 57.5784 140.466 61.6657 140.914 67.2006Z" fill="#593D34"/>
<path d="M143.515 96.5399C143.479 96.5398 143.443 96.5253 143.417 96.4992C143.39 96.4731 143.373 96.4374 143.37 96.399L141.426 72.9495C141.424 72.9291 141.426 72.9085 141.431 72.8889C141.437 72.8693 141.446 72.851 141.458 72.8352C141.471 72.8194 141.486 72.8063 141.503 72.7968C141.52 72.7873 141.539 72.7815 141.558 72.7797C141.578 72.7772 141.598 72.7789 141.616 72.7847C141.635 72.7904 141.652 72.8002 141.668 72.8133C141.683 72.8265 141.695 72.8427 141.704 72.861C141.713 72.8794 141.718 72.8995 141.719 72.92L143.664 96.3696C143.665 96.3898 143.663 96.4101 143.658 96.4294C143.652 96.4488 143.642 96.4667 143.63 96.4822C143.618 96.4977 143.603 96.5105 143.586 96.5198C143.568 96.5291 143.55 96.5348 143.531 96.5365L143.515 96.5399Z" fill="#0C0C0C"/>
<path d="M147.235 110.161L154.281 104.132L153.095 104.486C152.71 104.592 152.302 104.54 151.952 104.34C151.602 104.141 151.337 103.808 151.21 103.411C151.152 103.203 151.134 102.985 151.158 102.77C151.182 102.555 151.247 102.347 151.35 102.159C151.453 101.972 151.59 101.808 151.755 101.678C151.92 101.549 152.107 101.456 152.307 101.405L167.108 97.6082L168.381 102.581C168.776 104.125 168.725 105.759 168.234 107.272C167.744 108.786 166.835 110.11 165.627 111.076L160.142 115.44C159.861 115.673 159.513 115.796 159.156 115.789C158.799 115.782 158.455 115.645 158.183 115.401C157.942 115.176 157.775 114.875 157.708 114.542C157.64 114.21 157.675 113.863 157.808 113.553C157.791 113.548 157.775 113.539 157.761 113.527C157.747 113.516 157.735 113.501 157.727 113.484C157.719 113.468 157.714 113.449 157.713 113.431C157.711 113.412 157.713 113.393 157.719 113.375L156.709 114.183C156.397 114.443 156.003 114.568 155.606 114.533C155.21 114.499 154.841 114.306 154.574 113.996C154.344 113.709 154.217 113.346 154.216 112.971C154.215 112.596 154.34 112.233 154.568 111.945C154.552 111.942 154.537 111.936 154.523 111.928L154.107 112.26C153.826 112.492 153.478 112.616 153.121 112.608C152.764 112.601 152.421 112.464 152.148 112.22C151.855 111.947 151.674 111.564 151.643 111.153C151.611 110.741 151.732 110.333 151.98 110.013C151.975 110.004 151.97 109.995 151.966 109.985L149.032 112.495C148.887 112.619 148.72 112.712 148.54 112.769C148.361 112.825 148.172 112.843 147.986 112.823C147.8 112.802 147.619 112.744 147.454 112.649C147.29 112.555 147.144 112.428 147.026 112.275C146.908 112.121 146.82 111.945 146.767 111.756C146.713 111.566 146.696 111.368 146.715 111.171C146.734 110.975 146.79 110.784 146.88 110.61C146.969 110.437 147.089 110.283 147.235 110.159L147.235 110.161Z" fill="#E98862"/>
<path opacity="0.2" d="M152.146 110.075C152.161 110.069 152.176 110.06 152.189 110.049L155.011 107.576C155.039 107.55 155.057 107.514 155.06 107.475C155.063 107.436 155.051 107.398 155.027 107.368C155.004 107.337 154.97 107.318 154.933 107.314C154.896 107.31 154.859 107.321 154.83 107.345L152.007 109.819C151.981 109.841 151.964 109.873 151.958 109.907C151.952 109.942 151.958 109.978 151.974 110.008C151.991 110.039 152.017 110.062 152.049 110.075C152.08 110.087 152.114 110.087 152.146 110.075Z" fill="#0A0A0A"/>
<path opacity="0.2" d="M154.634 111.944C154.649 111.938 154.663 111.929 154.675 111.919L156.908 109.995C156.936 109.969 156.953 109.933 156.955 109.895C156.958 109.856 156.947 109.818 156.924 109.788C156.901 109.758 156.867 109.739 156.831 109.734C156.795 109.73 156.758 109.74 156.729 109.763L154.496 111.687C154.47 111.709 154.453 111.741 154.447 111.775C154.441 111.81 154.446 111.846 154.463 111.876C154.479 111.907 154.505 111.93 154.537 111.943C154.568 111.955 154.602 111.955 154.634 111.944Z" fill="#0A0A0A"/>
<path opacity="0.2" d="M157.901 113.558C157.917 113.551 157.932 113.542 157.945 113.53L158.979 112.594C158.994 112.582 159.005 112.566 159.013 112.548C159.022 112.531 159.027 112.512 159.028 112.492C159.03 112.473 159.027 112.453 159.021 112.434C159.016 112.416 159.006 112.398 158.994 112.384C158.982 112.369 158.967 112.357 158.951 112.348C158.934 112.339 158.916 112.334 158.897 112.332C158.879 112.331 158.86 112.333 158.842 112.339C158.825 112.345 158.808 112.355 158.794 112.368L157.76 113.303C157.735 113.326 157.718 113.358 157.713 113.392C157.707 113.427 157.714 113.462 157.73 113.492C157.747 113.522 157.773 113.545 157.804 113.557C157.835 113.57 157.869 113.57 157.901 113.558V113.558Z" fill="#0A0A0A"/>
<path d="M209.503 95.3952L209.45 95.1417L200.086 51.4556L181.558 55.8728L188.867 89.9751L159.584 97.5625L163.187 114.992L202.209 107.141C202.298 107.122 202.424 107.094 202.516 107.073C203.701 106.791 204.823 106.264 205.816 105.524C206.809 104.785 207.654 103.846 208.303 102.761C208.952 101.677 209.392 100.468 209.598 99.204C209.804 97.9402 209.772 96.6459 209.503 95.3952Z" fill="#593D34"/>
<path d="M159.441 97.5941C159.433 97.5551 159.44 97.5145 159.46 97.4807C159.48 97.447 159.512 97.4227 159.548 97.413L188.699 89.8624L183.959 67.7817C183.951 67.7419 183.957 67.7001 183.978 67.6656C183.999 67.631 184.032 67.6065 184.069 67.5975C184.107 67.5885 184.147 67.5957 184.18 67.6175C184.212 67.6393 184.236 67.674 184.244 67.7138L189.016 89.9417C189.025 89.981 189.018 90.0224 188.998 90.0568C188.978 90.0912 188.946 90.1159 188.909 90.1256L159.755 97.6767C159.755 97.6767 159.951 98.5753 160.006 98.8769C160.009 98.9156 159.997 98.954 159.974 98.984C159.951 99.0141 159.917 99.0334 159.881 99.0379C159.844 99.0425 159.807 99.0319 159.778 99.0084C159.749 98.9849 159.729 98.9504 159.724 98.912C159.657 98.5815 159.441 97.5941 159.441 97.5941Z" fill="#0C0C0C"/>
<path d="M160.583 121.929L149.325 85.4294C149.127 84.7879 148.742 84.2289 148.224 83.8325C147.707 83.4361 147.084 83.2225 146.444 83.2224H100.577C100.099 83.2223 99.6278 83.3416 99.2018 83.5705C98.7758 83.7995 98.4072 84.1315 98.1262 84.5396C97.8452 84.9476 97.6598 85.42 97.5852 85.9181C97.5105 86.4162 97.5487 86.9259 97.6967 87.4054L108.955 123.905C109.153 124.546 109.538 125.105 110.056 125.502C110.573 125.898 111.196 126.112 111.836 126.112H157.703C158.181 126.112 158.652 125.992 159.078 125.763C159.504 125.534 159.873 125.202 160.154 124.794C160.434 124.386 160.62 123.914 160.694 123.416C160.769 122.918 160.731 122.408 160.583 121.929Z" fill="#292A2E"/>
<path opacity="0.2" d="M160.583 121.929L149.325 85.4294C149.127 84.7879 148.742 84.2289 148.224 83.8325C147.707 83.4361 147.084 83.2225 146.444 83.2224H100.577C100.099 83.2223 99.6278 83.3416 99.2018 83.5705C98.7758 83.7995 98.4072 84.1315 98.1262 84.5396C97.8452 84.9476 97.6598 85.42 97.5852 85.9181C97.5105 86.4162 97.5487 86.9259 97.6967 87.4054L108.955 123.905C109.153 124.546 109.538 125.105 110.056 125.502C110.573 125.898 111.196 126.112 111.836 126.112H157.703C158.181 126.112 158.652 125.992 159.078 125.763C159.504 125.534 159.873 125.202 160.154 124.794C160.434 124.386 160.62 123.914 160.694 123.416C160.769 122.918 160.731 122.408 160.583 121.929Z" fill="white"/>
<path d="M127.819 109.74C130.476 109.74 132.63 107.469 132.63 104.666C132.63 101.864 130.476 99.5928 127.819 99.5928C125.162 99.5928 123.009 101.864 123.009 104.666C123.009 107.469 125.162 109.74 127.819 109.74Z" fill="white"/>
<path opacity="0.03" d="M67.9248 437.559C22.6805 437.559 -10.1524 391.612 2.88258 345.916C10.2539 320.074 24.8985 294.859 52.748 279.566C128.959 237.715 122.246 249.19 158.169 178.864C194.092 108.537 291.455 91.8538 342.472 141.392C414.629 211.459 366.093 267.277 411.756 315.438C412.231 315.94 412.701 316.444 413.164 316.951C454.423 362.135 423.375 437.559 363.899 437.559H67.9248Z" fill="black"/>
</g>
<defs>
<clipPath id="clip0">
<rect width="432" height="437" fill="white"/>
</clipPath>
</defs>
</svg>
